<?xml version="1.0" encoding="UTF-8" standalone="no"?><svg xmlns="http://www.w3.org/2000/svg" xmlns:xlink="http://www.w3.org/1999/xlink" contentScriptType="application/ecmascript" contentStyleType="text/css" height="1023px" preserveAspectRatio="none" style="width:645px;height:1023px;" version="1.1" viewBox="0 0 645 1023" width="645px" zoomAndPan="magnify"><defs><filter height="300%" id="fc2mtfoo2em8w" width="300%" x="-1" y="-1"><feGaussianBlur result="blurOut" stdDeviation="2.0"/><feColorMatrix in="blurOut" result="blurOut2" type="matrix" values="0 0 0 0 0 0 0 0 0 0 0 0 0 0 0 0 0 0 .4 0"/><feOffset dx="4.0" dy="4.0" in="blurOut2" result="blurOut3"/><feBlend in="SourceGraphic" in2="blurOut3" mode="normal"/></filter></defs><g><!--cluster Internet--><path d="M109,31 C109,28 111,26 114,26 C117,26 119,28 119,31 C119,28 121,26 124,26 C127,26 129,28 129,31 C129,28 131,26 134,26 C137,26 139,28 139,31 C139,28 141,26 144,26 C147,26 149,28 149,31 C149,28 151,26 154,26 C157,26 159,28 159,31 C159,28 161,26 164,26 C167,26 169,28 169,31 C169,28 171,26 174,26 C177,26 179,28 179,31 C179,28 181,26 184,26 C187,26 189,28 189,31 C189,28 191,26 194,26 C197,26 199,28 199,31 C199,28 201,26 204,26 C207,26 209,28 209,31 C209,28 211,26 214,26 C217,26 219,28 219,31 C219,28 221,26 224,26 C227,26 229,28 229,31 C229,28 231,26 234,26 C237,26 239,28 239,31 C239,28 241,26 244,26 C247,26 249,28 249,31 C249,28 251,26 254,26 C257,26 259,28 259,31 C259,28 261,26 264,26 C267,26 269,28 269,31 C269,28 271,26 274,26 C277,26 279,28 279,31 C279,28 281,26 284,26 C287,26 289,28 289,31 C289,28 291,26 294,26 C297,26 299,28 299,31 C299,28 301,26 304,26 C307,26 309,28 309,31 C309,28 311,26 314,26 C317,26 319,28 319,31 C322,31 324,33 324,36 C324,39 322,41 319,41 C322,41 324,43 324,46 C324,49 322,51 319,51 C322,51 324,53 324,56 C324,59 322,61 319,61 C322,61 324,63 324,66 C324,69 322,71 319,71 C322,71 324,73 324,76 C324,79 322,81 319,81 C322,81 324,83 324,86 C324,89 322,91 319,91 C322,91 324,93 324,96 C324,99 322,101 319,101 C322,101 324,103 324,106 C324,109 322,111 319,111 C322,111 324,113 324,116 C324,119 322,121 319,121 C322,121 324,123 324,126 C324,129 322,131 319,131 C322,131 324,133 324,136 C324,139 322,141 319,141 C322,141 324,143 324,146 C324,149 322,151 319,151 C322,151 324,153 324,156 C324,159 322,161 319,161 C322,161 324,163 324,166 C324,169 322,171 319,171 C322,171 324,173 324,176 C324,179 322,181 319,181 C322,181 324,183 324,186 C324,189 322,191 319,191 C322,191 324,193 324,196 C324,199 322,201 319,201 C322,201 324,203 324,206 C324,209 322,211 319,211 C322,211 324,213 324,216 C324,219 322,221 319,221 C322,221 324,223 324,226 C324,229 322,231 319,231 C322,231 324,233 324,236 C324,239 322,241 319,241 C322,241 324,243 324,246 C324,249 322,251 319,251 C322,251 324,253 324,256 C324,259 322,261 319,261 C322,261 324,263 324,266 C324,269 322,271 319,271 C322,271 324,273 324,276 C324,279 322,281 319,281 C322,281 324,283 324,286 C324,289 322,291 319,291 C322,291 324,293 324,296 C324,299 322,301 319,301 C322,301 324,303 324,306 C324,309 322,311 319,311 C322,311 324,313 324,316 C324,319 322,321 319,321 C322,321 324,323 324,326 C324,329 322,331 319,331 C322,331 324,333 324,336 C324,339 322,341 319,341 C322,341 324,343 324,346 C324,349 322,351 319,351 C322,351 324,353 324,356 C324,359 322,361 319,361 C322,361 324,363 324,366 C324,369 322,371 319,371 C322,371 324,373 324,376 C324,379 322,381 319,381 C322,381 324,383 324,386 C324,389 322,391 319,391 C322,391 324,393 324,396 C324,399 322,401 319,401 C322,401 324,403 324,406 C324,409 322,411 319,411 C322,411 324,413 324,416 C324,419 322,421 319,421 C322,421 324,423 324,426 C324,429 322,431 319,431 C322,431 324,433 324,436 C324,439 322,441 319,441 C322,441 324,443 324,446 C324,449 322,451 319,451 C322,451 324,453 324,456 C324,459 322,461 319,461 C322,461 324,463 324,466 C324,469 322,471 319,471 C322,471 324,473 324,476 C324,479 322,481 319,481 C322,481 324,483 324,486 C324,489 322,491 319,491 C322,491 324,493 324,496 C324,499 322,501 319,501 C322,501 324,503 324,506 C324,509 322,511 319,511 C322,511 324,513 324,516 C324,519 322,521 319,521 C322,521 324,523 324,526 C324,529 322,531 319,531 C322,531 324,533 324,536 C324,539 322,541 319,541 C322,541 324,543 324,546 C324,549 322,551 319,551 C322,551 324,553 324,556 C324,559 322,561 319,561 C319,564 316,566 314,566 C311,566 309,564 309,561 C309,564 306,566 304,566 C301,566 299,564 299,561 C299,564 296,566 294,566 C291,566 289,564 289,561 C289,564 286,566 284,566 C281,566 279,564 279,561 C279,564 276,566 274,566 C271,566 269,564 269,561 C269,564 266,566 264,566 C261,566 259,564 259,561 C259,564 256,566 254,566 C251,566 249,564 249,561 C249,564 246,566 244,566 C241,566 239,564 239,561 C239,564 236,566 234,566 C231,566 229,564 229,561 C229,564 226,566 224,566 C221,566 219,564 219,561 C219,564 216,566 214,566 C211,566 209,564 209,561 C209,564 206,566 204,566 C201,566 199,564 199,561 C199,564 196,566 194,566 C191,566 189,564 189,561 C189,564 186,566 184,566 C181,566 179,564 179,561 C179,564 176,566 174,566 C171,566 169,564 169,561 C169,564 166,566 164,566 C161,566 159,564 159,561 C159,564 156,566 154,566 C151,566 149,564 149,561 C149,564 146,566 144,566 C141,566 139,564 139,561 C139,564 136,566 134,566 C131,566 129,564 129,561 C129,564 126,566 124,566 C121,566 119,564 119,561 C119,564 116,566 114,566 C111,566 109,564 109,561 C106,561 104,559 104,556 C104,553 106,551 109,551 C106,551 104,549 104,546 C104,543 106,541 109,541 C106,541 104,539 104,536 C104,533 106,531 109,531 C106,531 104,529 104,526 C104,523 106,521 109,521 C106,521 104,519 104,516 C104,513 106,511 109,511 C106,511 104,509 104,506 C104,503 106,501 109,501 C106,501 104,499 104,496 C104,493 106,491 109,491 C106,491 104,489 104,486 C104,483 106,481 109,481 C106,481 104,479 104,476 C104,473 106,471 109,471 C106,471 104,469 104,466 C104,463 106,461 109,461 C106,461 104,459 104,456 C104,453 106,451 109,451 C106,451 104,449 104,446 C104,443 106,441 109,441 C106,441 104,439 104,436 C104,433 106,431 109,431 C106,431 104,429 104,426 C104,423 106,421 109,421 C106,421 104,419 104,416 C104,413 106,411 109,411 C106,411 104,409 104,406 C104,403 106,401 109,401 C106,401 104,399 104,396 C104,393 106,391 109,391 C106,391 104,389 104,386 C104,383 106,381 109,381 C106,381 104,379 104,376 C104,373 106,371 109,371 C106,371 104,369 104,366 C104,363 106,361 109,361 C106,361 104,359 104,356 C104,353 106,351 109,351 C106,351 104,349 104,346 C104,343 106,341 109,341 C106,341 104,339 104,336 C104,333 106,331 109,331 C106,331 104,329 104,326 C104,323 106,321 109,321 C106,321 104,319 104,316 C104,313 106,311 109,311 C106,311 104,309 104,306 C104,303 106,301 109,301 C106,301 104,299 104,296 C104,293 106,291 109,291 C106,291 104,289 104,286 C104,283 106,281 109,281 C106,281 104,279 104,276 C104,273 106,271 109,271 C106,271 104,269 104,266 C104,263 106,261 109,261 C106,261 104,259 104,256 C104,253 106,251 109,251 C106,251 104,249 104,246 C104,243 106,241 109,241 C106,241 104,239 104,236 C104,233 106,231 109,231 C106,231 104,229 104,226 C104,223 106,221 109,221 C106,221 104,219 104,216 C104,213 106,211 109,211 C106,211 104,209 104,206 C104,203 106,201 109,201 C106,201 104,199 104,196 C104,193 106,191 109,191 C106,191 104,189 104,186 C104,183 106,181 109,181 C106,181 104,179 104,176 C104,173 106,171 109,171 C106,171 104,169 104,166 C104,163 106,161 109,161 C106,161 104,159 104,156 C104,153 106,151 109,151 C106,151 104,149 104,146 C104,143 106,141 109,141 C106,141 104,139 104,136 C104,133 106,131 109,131 C106,131 104,129 104,126 C104,123 106,121 109,121 C106,121 104,119 104,116 C104,113 106,111 109,111 C106,111 104,109 104,106 C104,103 106,101 109,101 C106,101 104,99 104,96 C104,93 106,91 109,91 C106,91 104,89 104,86 C104,83 106,81 109,81 C106,81 104,79 104,76 C104,73 106,71 109,71 C106,71 104,69 104,66 C104,63 106,61 109,61 C106,61 104,59 104,56 C104,53 106,51 109,51 C106,51 104,49 104,46 C104,43 106,41 109,41 C106,41 104,39 104,36 C104,33 106,31 109,31 " fill="#FFFFFF" filter="url(#fc2mtfoo2em8w)" style="stroke: #000000; stroke-width: 1.5;"/><text fill="#000000" font-family="sans-serif" font-size="14" font-weight="bold" lengthAdjust="spacingAndGlyphs" textLength="63" x="183.5" y="49.9951">Internet</text><!--cluster CS UCL--><rect fill="#FFFFFF" filter="url(#fc2mtfoo2em8w)" height="424" style="stroke: #000000; stroke-width: 1.5;" width="410" x="22" y="588"/><path d="M89,589 L89,597.2969 L79,607.2969 L22,607.2969 " fill="none" style="stroke: #000000; stroke-width: 1.5;"/><text fill="#000000" font-family="sans-serif" font-size="14" font-weight="bold" lengthAdjust="spacingAndGlyphs" textLength="57" x="25" y="601.9951">CS UCL</text><!--cluster storage--><polygon fill="#FFFFFF" filter="url(#fc2mtfoo2em8w)" points="46,900,113,900,120,922.2969,408,922.2969,408,988,46,988,46,900" style="stroke: #000000; stroke-width: 1.5;"/><line style="stroke: #000000; stroke-width: 1.5;" x1="46" x2="120" y1="922.2969" y2="922.2969"/><text fill="#000000" font-family="sans-serif" font-size="14" font-weight="bold" lengthAdjust="spacingAndGlyphs" textLength="61" x="50" y="914.9951">storage</text><!--entity Twitter API--><rect fill="#FEFECE" filter="url(#fc2mtfoo2em8w)" height="36.2969" style="stroke: #A80036; stroke-width: 1.5;" width="92" x="169" y="60"/><rect fill="#FEFECE" height="5" style="stroke: #A80036; stroke-width: 1.5;" width="10" x="164" y="65"/><rect fill="#FEFECE" height="5" style="stroke: #A80036; stroke-width: 1.5;" width="10" x="164" y="86.2969"/><text fill="#000000" font-family="sans-serif" font-size="14" lengthAdjust="spacingAndGlyphs" textLength="72" x="179" y="82.9951">Twitter API</text><!--entity GET--><ellipse cx="215" cy="187" fill="#FEFECE" filter="url(#fc2mtfoo2em8w)" rx="8" ry="8" style="stroke: #A80036; stroke-width: 2.0;"/><text fill="#000000" font-family="sans-serif" font-size="14" lengthAdjust="spacingAndGlyphs" textLength="29" x="200.5" y="216.9951">GET</text><!--entity wsclient-cloudstore-app--><rect fill="#FEFECE" filter="url(#fc2mtfoo2em8w)" height="36.2969" style="stroke: #A80036; stroke-width: 1.5;" width="186" x="122" y="286"/><rect fill="#FEFECE" height="5" style="stroke: #A80036; stroke-width: 1.5;" width="10" x="117" y="291"/><rect fill="#FEFECE" height="5" style="stroke: #A80036; stroke-width: 1.5;" width="10" x="117" y="312.2969"/><text fill="#000000" font-family="sans-serif" font-size="14" lengthAdjust="spacingAndGlyphs" textLength="166" x="132" y="308.9951">wsclient-cloudstore-app</text><!--entity PUT--><ellipse cx="215" cy="423" fill="#FEFECE" filter="url(#fc2mtfoo2em8w)" rx="8" ry="8" style="stroke: #A80036; stroke-width: 2.0;"/><text fill="#000000" font-family="sans-serif" font-size="14" lengthAdjust="spacingAndGlyphs" textLength="28" x="201" y="452.9951">PUT</text><!--entity UCL Office365 OneDrive--><rect fill="#FEFECE" filter="url(#fc2mtfoo2em8w)" height="36.2969" style="stroke: #A80036; stroke-width: 1.5;" width="185" x="122.75" y="512"/><rect fill="#FEFECE" height="5" style="stroke: #A80036; stroke-width: 1.5;" width="10" x="117.75" y="517"/><rect fill="#FEFECE" height="5" style="stroke: #A80036; stroke-width: 1.5;" width="10" x="117.75" y="538.2969"/><text fill="#000000" font-family="sans-serif" font-size="14" lengthAdjust="spacingAndGlyphs" textLength="165" x="132.75" y="534.9951">UCL Office365 OneDrive</text><!--entity API--><ellipse cx="215" cy="655" fill="#FEFECE" filter="url(#fc2mtfoo2em8w)" rx="8" ry="8" style="stroke: #A80036; stroke-width: 2.0;"/><text fill="#000000" font-family="sans-serif" font-size="14" lengthAdjust="spacingAndGlyphs" textLength="21" x="204.5" y="684.9951">API</text><!--entity clientapp1--><rect fill="#FEFECE" filter="url(#fc2mtfoo2em8w)" height="36.2969" style="stroke: #A80036; stroke-width: 1.5;" width="92" x="42" y="744"/><rect fill="#FEFECE" height="5" style="stroke: #A80036; stroke-width: 1.5;" width="10" x="37" y="749"/><rect fill="#FEFECE" height="5" style="stroke: #A80036; stroke-width: 1.5;" width="10" x="37" y="770.2969"/><text fill="#000000" font-family="sans-serif" font-size="14" lengthAdjust="spacingAndGlyphs" textLength="72" x="52" y="766.9951">clientapp1</text><!--entity clientapp2--><rect fill="#FEFECE" filter="url(#fc2mtfoo2em8w)" height="36.2969" style="stroke: #A80036; stroke-width: 1.5;" width="92" x="169" y="744"/><rect fill="#FEFECE" height="5" style="stroke: #A80036; stroke-width: 1.5;" width="10" x="164" y="749"/><rect fill="#FEFECE" height="5" style="stroke: #A80036; stroke-width: 1.5;" width="10" x="164" y="770.2969"/><text fill="#000000" font-family="sans-serif" font-size="14" lengthAdjust="spacingAndGlyphs" textLength="72" x="179" y="766.9951">clientapp2</text><!--entity clientappn--><rect fill="#FEFECE" filter="url(#fc2mtfoo2em8w)" height="36.2969" style="stroke: #A80036; stroke-width: 1.5;" width="92" x="296" y="744"/><rect fill="#FEFECE" height="5" style="stroke: #A80036; stroke-width: 1.5;" width="10" x="291" y="749"/><rect fill="#FEFECE" height="5" style="stroke: #A80036; stroke-width: 1.5;" width="10" x="291" y="770.2969"/><text fill="#000000" font-family="sans-serif" font-size="14" lengthAdjust="spacingAndGlyphs" textLength="72" x="306" y="766.9951">clientappn</text><!--entity data processor--><rect fill="#FEFECE" filter="url(#fc2mtfoo2em8w)" height="36.2969" style="stroke: #A80036; stroke-width: 1.5;" width="124" x="153" y="840"/><rect fill="#FEFECE" height="5" style="stroke: #A80036; stroke-width: 1.5;" width="10" x="148" y="845"/><rect fill="#FEFECE" height="5" style="stroke: #A80036; stroke-width: 1.5;" width="10" x="148" y="866.2969"/><text fill="#000000" font-family="sans-serif" font-size="14" lengthAdjust="spacingAndGlyphs" textLength="104" x="163" y="862.9951">data processor</text><!--entity objectstore--><rect fill="#FEFECE" filter="url(#fc2mtfoo2em8w)" height="36.2969" style="stroke: #A80036; stroke-width: 1.5;" width="99" x="292.75" y="936"/><rect fill="#FEFECE" height="5" style="stroke: #A80036; stroke-width: 1.5;" width="10" x="287.75" y="941"/><rect fill="#FEFECE" height="5" style="stroke: #A80036; stroke-width: 1.5;" width="10" x="287.75" y="962.2969"/><text fill="#000000" font-family="sans-serif" font-size="14" lengthAdjust="spacingAndGlyphs" textLength="79" x="302.75" y="958.9951">objectstore</text><!--entity database--><rect fill="#FEFECE" filter="url(#fc2mtfoo2em8w)" height="36.2969" style="stroke: #A80036; stroke-width: 1.5;" width="84" x="173" y="936"/><rect fill="#FEFECE" height="5" style="stroke: #A80036; stroke-width: 1.5;" width="10" x="168" y="941"/><rect fill="#FEFECE" height="5" style="stroke: #A80036; stroke-width: 1.5;" width="10" x="168" y="962.2969"/><text fill="#000000" font-family="sans-serif" font-size="14" lengthAdjust="spacingAndGlyphs" textLength="64" x="183" y="958.9951">database</text><!--entity filestore--><rect fill="#FEFECE" filter="url(#fc2mtfoo2em8w)" height="36.2969" style="stroke: #A80036; stroke-width: 1.5;" width="75" x="62.75" y="936"/><rect fill="#FEFECE" height="5" style="stroke: #A80036; stroke-width: 1.5;" width="10" x="57.75" y="941"/><rect fill="#FEFECE" height="5" style="stroke: #A80036; stroke-width: 1.5;" width="10" x="57.75" y="962.2969"/><text fill="#000000" font-family="sans-serif" font-size="14" lengthAdjust="spacingAndGlyphs" textLength="55" x="72.75" y="958.9951">filestore</text><polygon fill="#FBFB77" filter="url(#fc2mtfoo2em8w)" points="343,276.5,343,331.8984,623,331.8984,623,286.5,613,276.5,343,276.5" style="stroke: #A80036; stroke-width: 1.0;"/><polygon fill="#FBFB77" points="343,276.5,343,300,308.172,304,343,308,343,331.8984,623,331.8984,623,286.5,613,276.5,343,276.5" style="stroke: #A80036; stroke-width: 1.0;"/><line style="stroke: #A80036; stroke-width: 1.0;" x1="613" x2="613" y1="276.5" y2="286.5"/><line style="stroke: #A80036; stroke-width: 1.0;" x1="623" x2="613" y1="286.5" y2="286.5"/><text fill="#000000" font-family="sans-serif" font-size="13" lengthAdjust="spacingAndGlyphs" textLength="149" x="349" y="293.5669">Calls Twitter Search API</text><text fill="#000000" font-family="sans-serif" font-size="13" lengthAdjust="spacingAndGlyphs" textLength="259" x="349" y="308.6997">Package and compress JSON in a ZIP file</text><text fill="#000000" font-family="sans-serif" font-size="13" lengthAdjust="spacingAndGlyphs" textLength="183" x="349" y="323.8325">Push the ZIP file to OneDrive</text><polygon fill="#FBFB77" filter="url(#fc2mtfoo2em8w)" points="448.75,641.5,448.75,666.6328,537.75,666.6328,537.75,651.5,527.75,641.5,448.75,641.5" style="stroke: #A80036; stroke-width: 1.0;"/><polygon fill="#FBFB77" points="448.75,641.5,448.75,658.6328,246.237,662.431,448.75,666.6328,448.75,666.6328,537.75,666.6328,537.75,651.5,527.75,641.5,448.75,641.5" style="stroke: #A80036; stroke-width: 1.0;"/><line style="stroke: #A80036; stroke-width: 1.0;" x1="527.75" x2="527.75" y1="641.5" y2="651.5"/><line style="stroke: #A80036; stroke-width: 1.0;" x1="537.75" x2="527.75" y1="651.5" y2="651.5"/><text fill="#000000" font-family="sans-serif" font-size="13" lengthAdjust="spacingAndGlyphs" textLength="68" x="454.75" y="658.5669">Python API</text><!--link Twitter API to GET--><path d="M215,96.191 C215,119.585 215,160.516 215,177.862 " fill="none" id="Twitter API-GET" style="stroke: #A80036; stroke-width: 1.0;"/><!--link GET to wsclient-cloudstore-app--><path d="M215,196.271 C215,213.676 215,254.606 215,280.421 " fill="none" id="GET-wsclient-cloudstore-app" style="stroke: #A80036; stroke-width: 1.0;"/><polygon fill="#A80036" points="215,285.686,219,276.686,215,280.686,211,276.686,215,285.686" style="stroke: #A80036; stroke-width: 1.0;"/><!--link wsclient-cloudstore-app to PUT--><path d="M215,322.013 C215,345.517 215,387.431 215,408.753 " fill="none" id="wsclient-cloudstore-app-PUT" style="stroke: #A80036; stroke-width: 1.0;"/><polygon fill="#A80036" points="215,413.948,219,404.948,215,408.948,211,404.948,215,413.948" style="stroke: #A80036; stroke-width: 1.0;"/><!--link PUT to UCL Office365 OneDrive--><path d="M215,432.239 C215,449.353 215,489.058 215,511.933 " fill="none" id="PUT-UCL Office365 OneDrive" style="stroke: #A80036; stroke-width: 1.0;"/><!--link UCL Office365 OneDrive to API--><path d="M215,548.103 C215,572.809 215,617.984 215,640.499 " fill="none" id="UCL Office365 OneDrive-API" style="stroke: #A80036; stroke-width: 1.0; stroke-dasharray: 7.0,7.0;"/><polygon fill="#A80036" points="215,645.709,219,636.709,215,640.709,211,636.709,215,645.709" style="stroke: #A80036; stroke-width: 1.0;"/><!--link API to clientapp1--><path d="M205.866,663.551 C185.733,680.197 137.095,720.41 108.994,743.643 " fill="none" id="API-clientapp1" style="stroke: #A80036; stroke-width: 1.0;"/><!--link API to clientapp2--><path d="M215,664.239 C215,681.353 215,721.058 215,743.933 " fill="none" id="API-clientapp2" style="stroke: #A80036; stroke-width: 1.0;"/><!--link API to clientappn--><path d="M224.134,663.551 C244.267,680.197 292.905,720.41 321.006,743.643 " fill="none" id="API-clientappn" style="stroke: #A80036; stroke-width: 1.0;"/><!--link clientapp1 to data processor--><path d="M110.999,780.023 C132.532,795.961 164.73,819.792 187.588,836.711 " fill="none" id="clientapp1-data processor" style="stroke: #A80036; stroke-width: 1.0;"/><polygon fill="#A80036" points="191.743,839.786,186.8885,831.2166,187.7241,836.8114,182.1292,837.6469,191.743,839.786" style="stroke: #A80036; stroke-width: 1.0;"/><!--link clientapp2 to data processor--><path d="M215,780.241 C215,795.479 215,817.807 215,834.458 " fill="none" id="clientapp2-data processor" style="stroke: #A80036; stroke-width: 1.0;"/><polygon fill="#A80036" points="215,839.868,219,830.868,215,834.868,211,830.868,215,839.868" style="stroke: #A80036; stroke-width: 1.0;"/><!--link clientappn to data processor--><path d="M319.001,780.023 C297.468,795.961 265.27,819.792 242.412,836.711 " fill="none" id="clientappn-data processor" style="stroke: #A80036; stroke-width: 1.0;"/><polygon fill="#A80036" points="238.257,839.786,247.8708,837.6469,242.2759,836.8114,243.1115,831.2166,238.257,839.786" style="stroke: #A80036; stroke-width: 1.0;"/><!--link data processor to objectstore--><path d="M249.485,876.154 C258.064,880.907 267.07,886.33 275,892 C291.699,903.94 308.784,919.558 321.521,932.0017 " fill="none" id="data processor-objectstore" style="stroke: #A80036; stroke-width: 1.0;"/><polygon fill="#A80036" points="325.33,935.7541,321.7257,926.5885,321.7681,932.2452,316.1114,932.2876,325.33,935.7541" style="stroke: #A80036; stroke-width: 1.0;"/><!--link data processor to database--><path d="M215,876.241 C215,891.479 215,913.807 215,930.4576 " fill="none" id="data processor-database" style="stroke: #A80036; stroke-width: 1.0;"/><polygon fill="#A80036" points="215,935.8683,219,926.8683,215,930.8683,211,926.8683,215,935.8683" style="stroke: #A80036; stroke-width: 1.0;"/><!--link data processor to filestore--><path d="M180.127,876.089 C171.889,880.77 163.365,886.177 156,892 C141.309,903.616 127.068,919.206 116.624,931.7177 " fill="none" id="data processor-filestore" style="stroke: #A80036; stroke-width: 1.0;"/><polygon fill="#A80036" points="113.232,935.8326,122.0429,931.4316,116.4121,931.9742,115.8695,926.3435,113.232,935.8326" style="stroke: #A80036; stroke-width: 1.0;"/><!--
@startuml
cloud "Internet" {
    [Twitter API] - - GET
    GET - -> [wsclient-cloudstore-app]
    [wsclient-cloudstore-app] - -> PUT
    PUT - - [UCL Office365 OneDrive]
}

note right of [wsclient-cloudstore-app]
    Calls Twitter Search API
    Package and compress JSON in a ZIP file
    Push the ZIP file to OneDrive
end note

frame "CS UCL" {
    [UCL Office365 OneDrive] ..> API
    API - - [clientapp1]
    API - - [clientapp2]
    API - - [clientappn]

    [clientapp1] - -> [data processor]
    [clientapp2] - -> [data processor]
    [clientappn] - -> [data processor]

    folder "storage" {
        [data processor] - -> [objectstore]
        [data processor] - -> [database]
        [data processor] - -> [filestore]

    }
}

note right of API
    Python API
end note
@enduml

PlantUML version 1.2017.20(Mon Dec 11 16:57:05 GMT 2017)
(APACHE source distribution)
Java Runtime: Java(TM) SE Runtime Environment
JVM: Java HotSpot(TM) 64-Bit Server VM
Java Version: 1.8.0_141-b15
Operating System: Linux
OS Version: 3.10.0-693.11.6.el7.x86_64
Default Encoding: UTF-8
Language: en
Country: GB
--></g></svg>