<?xml version="1.0" encoding="UTF-8" standalone="no"?><svg xmlns="http://www.w3.org/2000/svg" xmlns:xlink="http://www.w3.org/1999/xlink" contentScriptType="application/ecmascript" contentStyleType="text/css" height="1014px" preserveAspectRatio="none" style="width:719px;height:1014px;" version="1.1" viewBox="0 0 719 1014" width="719px" zoomAndPan="magnify"><defs><filter height="300%" id="fc2mtfoo2em8w" width="300%" x="-1" y="-1"><feGaussianBlur result="blurOut" stdDeviation="2.0"/><feColorMatrix in="blurOut" result="blurOut2" type="matrix" values="0 0 0 0 0 0 0 0 0 0 0 0 0 0 0 0 0 0 .4 0"/><feOffset dx="4.0" dy="4.0" in="blurOut2" result="blurOut3"/><feBlend in="SourceGraphic" in2="blurOut3" mode="normal"/></filter></defs><g><!--cluster Internet--><path d="M183,31 C183,28 185,26 188,26 C191,26 193,28 193,31 C193,28 195,26 198,26 C201,26 203,28 203,31 C203,28 205,26 208,26 C211,26 213,28 213,31 C213,28 215,26 218,26 C221,26 223,28 223,31 C223,28 225,26 228,26 C231,26 233,28 233,31 C233,28 235,26 238,26 C241,26 243,28 243,31 C243,28 245,26 248,26 C251,26 253,28 253,31 C253,28 255,26 258,26 C261,26 263,28 263,31 C263,28 265,26 268,26 C271,26 273,28 273,31 C273,28 275,26 278,26 C281,26 283,28 283,31 C283,28 285,26 288,26 C291,26 293,28 293,31 C293,28 295,26 298,26 C301,26 303,28 303,31 C303,28 305,26 308,26 C311,26 313,28 313,31 C313,28 315,26 318,26 C321,26 323,28 323,31 C323,28 325,26 328,26 C331,26 333,28 333,31 C333,28 335,26 338,26 C341,26 343,28 343,31 C343,28 345,26 348,26 C351,26 353,28 353,31 C353,28 355,26 358,26 C361,26 363,28 363,31 C363,28 365,26 368,26 C371,26 373,28 373,31 C373,28 375,26 378,26 C381,26 383,28 383,31 C383,28 385,26 388,26 C391,26 393,28 393,31 C396,31 398,33 398,36 C398,39 396,41 393,41 C396,41 398,43 398,46 C398,49 396,51 393,51 C396,51 398,53 398,56 C398,59 396,61 393,61 C396,61 398,63 398,66 C398,69 396,71 393,71 C396,71 398,73 398,76 C398,79 396,81 393,81 C396,81 398,83 398,86 C398,89 396,91 393,91 C396,91 398,93 398,96 C398,99 396,101 393,101 C396,101 398,103 398,106 C398,109 396,111 393,111 C396,111 398,113 398,116 C398,119 396,121 393,121 C396,121 398,123 398,126 C398,129 396,131 393,131 C396,131 398,133 398,136 C398,139 396,141 393,141 C396,141 398,143 398,146 C398,149 396,151 393,151 C396,151 398,153 398,156 C398,159 396,161 393,161 C396,161 398,163 398,166 C398,169 396,171 393,171 C396,171 398,173 398,176 C398,179 396,181 393,181 C396,181 398,183 398,186 C398,189 396,191 393,191 C396,191 398,193 398,196 C398,199 396,201 393,201 C396,201 398,203 398,206 C398,209 396,211 393,211 C396,211 398,213 398,216 C398,219 396,221 393,221 C396,221 398,223 398,226 C398,229 396,231 393,231 C396,231 398,233 398,236 C398,239 396,241 393,241 C396,241 398,243 398,246 C398,249 396,251 393,251 C396,251 398,253 398,256 C398,259 396,261 393,261 C396,261 398,263 398,266 C398,269 396,271 393,271 C396,271 398,273 398,276 C398,279 396,281 393,281 C396,281 398,283 398,286 C398,289 396,291 393,291 C396,291 398,293 398,296 C398,299 396,301 393,301 C396,301 398,303 398,306 C398,309 396,311 393,311 C396,311 398,313 398,316 C398,319 396,321 393,321 C396,321 398,323 398,326 C398,329 396,331 393,331 C396,331 398,333 398,336 C398,339 396,341 393,341 C396,341 398,343 398,346 C398,349 396,351 393,351 C396,351 398,353 398,356 C398,359 396,361 393,361 C396,361 398,363 398,366 C398,369 396,371 393,371 C396,371 398,373 398,376 C398,379 396,381 393,381 C396,381 398,383 398,386 C398,389 396,391 393,391 C396,391 398,393 398,396 C398,399 396,401 393,401 C396,401 398,403 398,406 C398,409 396,411 393,411 C396,411 398,413 398,416 C398,419 396,421 393,421 C396,421 398,423 398,426 C398,429 396,431 393,431 C396,431 398,433 398,436 C398,439 396,441 393,441 C396,441 398,443 398,446 C398,449 396,451 393,451 C396,451 398,453 398,456 C398,459 396,461 393,461 C396,461 398,463 398,466 C398,469 396,471 393,471 C396,471 398,473 398,476 C398,479 396,481 393,481 C396,481 398,483 398,486 C398,489 396,491 393,491 C396,491 398,493 398,496 C398,499 396,501 393,501 C396,501 398,503 398,506 C398,509 396,511 393,511 C396,511 398,513 398,516 C398,519 396,521 393,521 C396,521 398,523 398,526 C398,529 396,531 393,531 C396,531 398,533 398,536 C398,539 396,541 393,541 C396,541 398,543 398,546 C398,549 396,551 393,551 C393,554 390,556 388,556 C385,556 383,554 383,551 C383,554 380,556 378,556 C375,556 373,554 373,551 C373,554 370,556 368,556 C365,556 363,554 363,551 C363,554 360,556 358,556 C355,556 353,554 353,551 C353,554 350,556 348,556 C345,556 343,554 343,551 C343,554 340,556 338,556 C335,556 333,554 333,551 C333,554 330,556 328,556 C325,556 323,554 323,551 C323,554 320,556 318,556 C315,556 313,554 313,551 C313,554 310,556 308,556 C305,556 303,554 303,551 C303,554 300,556 298,556 C295,556 293,554 293,551 C293,554 290,556 288,556 C285,556 283,554 283,551 C283,554 280,556 278,556 C275,556 273,554 273,551 C273,554 270,556 268,556 C265,556 263,554 263,551 C263,554 260,556 258,556 C255,556 253,554 253,551 C253,554 250,556 248,556 C245,556 243,554 243,551 C243,554 240,556 238,556 C235,556 233,554 233,551 C233,554 230,556 228,556 C225,556 223,554 223,551 C223,554 220,556 218,556 C215,556 213,554 213,551 C213,554 210,556 208,556 C205,556 203,554 203,551 C203,554 200,556 198,556 C195,556 193,554 193,551 C193,554 190,556 188,556 C185,556 183,554 183,551 C180,551 178,549 178,546 C178,543 180,541 183,541 C180,541 178,539 178,536 C178,533 180,531 183,531 C180,531 178,529 178,526 C178,523 180,521 183,521 C180,521 178,519 178,516 C178,513 180,511 183,511 C180,511 178,509 178,506 C178,503 180,501 183,501 C180,501 178,499 178,496 C178,493 180,491 183,491 C180,491 178,489 178,486 C178,483 180,481 183,481 C180,481 178,479 178,476 C178,473 180,471 183,471 C180,471 178,469 178,466 C178,463 180,461 183,461 C180,461 178,459 178,456 C178,453 180,451 183,451 C180,451 178,449 178,446 C178,443 180,441 183,441 C180,441 178,439 178,436 C178,433 180,431 183,431 C180,431 178,429 178,426 C178,423 180,421 183,421 C180,421 178,419 178,416 C178,413 180,411 183,411 C180,411 178,409 178,406 C178,403 180,401 183,401 C180,401 178,399 178,396 C178,393 180,391 183,391 C180,391 178,389 178,386 C178,383 180,381 183,381 C180,381 178,379 178,376 C178,373 180,371 183,371 C180,371 178,369 178,366 C178,363 180,361 183,361 C180,361 178,359 178,356 C178,353 180,351 183,351 C180,351 178,349 178,346 C178,343 180,341 183,341 C180,341 178,339 178,336 C178,333 180,331 183,331 C180,331 178,329 178,326 C178,323 180,321 183,321 C180,321 178,319 178,316 C178,313 180,311 183,311 C180,311 178,309 178,306 C178,303 180,301 183,301 C180,301 178,299 178,296 C178,293 180,291 183,291 C180,291 178,289 178,286 C178,283 180,281 183,281 C180,281 178,279 178,276 C178,273 180,271 183,271 C180,271 178,269 178,266 C178,263 180,261 183,261 C180,261 178,259 178,256 C178,253 180,251 183,251 C180,251 178,249 178,246 C178,243 180,241 183,241 C180,241 178,239 178,236 C178,233 180,231 183,231 C180,231 178,229 178,226 C178,223 180,221 183,221 C180,221 178,219 178,216 C178,213 180,211 183,211 C180,211 178,209 178,206 C178,203 180,201 183,201 C180,201 178,199 178,196 C178,193 180,191 183,191 C180,191 178,189 178,186 C178,183 180,181 183,181 C180,181 178,179 178,176 C178,173 180,171 183,171 C180,171 178,169 178,166 C178,163 180,161 183,161 C180,161 178,159 178,156 C178,153 180,151 183,151 C180,151 178,149 178,146 C178,143 180,141 183,141 C180,141 178,139 178,136 C178,133 180,131 183,131 C180,131 178,129 178,126 C178,123 180,121 183,121 C180,121 178,119 178,116 C178,113 180,111 183,111 C180,111 178,109 178,106 C178,103 180,101 183,101 C180,101 178,99 178,96 C178,93 180,91 183,91 C180,91 178,89 178,86 C178,83 180,81 183,81 C180,81 178,79 178,76 C178,73 180,71 183,71 C180,71 178,69 178,66 C178,63 180,61 183,61 C180,61 178,59 178,56 C178,53 180,51 183,51 C180,51 178,49 178,46 C178,43 180,41 183,41 C180,41 178,39 178,36 C178,33 180,31 183,31 " fill="#FFFFFF" filter="url(#fc2mtfoo2em8w)" style="stroke: #000000; stroke-width: 1.5;"/><text fill="#000000" font-family="sans-serif" font-size="14" font-weight="bold" lengthAdjust="spacingAndGlyphs" textLength="63" x="257.5" y="49.9951">Internet</text><!--cluster CS UCL--><rect fill="#FFFFFF" filter="url(#fc2mtfoo2em8w)" height="421" style="stroke: #000000; stroke-width: 1.5;" width="409" x="22" y="582"/><path d="M89,583 L89,591.2969 L79,601.2969 L22,601.2969 " fill="none" style="stroke: #000000; stroke-width: 1.5;"/><text fill="#000000" font-family="sans-serif" font-size="14" font-weight="bold" lengthAdjust="spacingAndGlyphs" textLength="57" x="25" y="595.9951">CS UCL</text><!--cluster storage--><polygon fill="#FFFFFF" filter="url(#fc2mtfoo2em8w)" points="46,892,113,892,120,914.2969,407,914.2969,407,979,46,979,46,892" style="stroke: #000000; stroke-width: 1.5;"/><line style="stroke: #000000; stroke-width: 1.5;" x1="46" x2="120" y1="914.2969" y2="914.2969"/><text fill="#000000" font-family="sans-serif" font-size="14" font-weight="bold" lengthAdjust="spacingAndGlyphs" textLength="61" x="50" y="906.9951">storage</text><!--entity Twitter API--><rect fill="#FEFECE" filter="url(#fc2mtfoo2em8w)" height="36.2969" style="stroke: #A80036; stroke-width: 1.5;" width="92" x="243" y="59"/><rect fill="#FEFECE" height="5" style="stroke: #A80036; stroke-width: 1.5;" width="10" x="238" y="64"/><rect fill="#FEFECE" height="5" style="stroke: #A80036; stroke-width: 1.5;" width="10" x="238" y="85.2969"/><text fill="#000000" font-family="sans-serif" font-size="14" lengthAdjust="spacingAndGlyphs" textLength="72" x="253" y="81.9951">Twitter API</text><!--entity GET--><ellipse cx="289" cy="184" fill="#FEFECE" filter="url(#fc2mtfoo2em8w)" rx="8" ry="8" style="stroke: #A80036; stroke-width: 2.0;"/><text fill="#000000" font-family="sans-serif" font-size="14" lengthAdjust="spacingAndGlyphs" textLength="29" x="274.5" y="213.9951">GET</text><!--entity wsclient-cloudstore-app--><rect fill="#FEFECE" filter="url(#fc2mtfoo2em8w)" height="36.2969" style="stroke: #A80036; stroke-width: 1.5;" width="186" x="196" y="282.5"/><rect fill="#FEFECE" height="5" style="stroke: #A80036; stroke-width: 1.5;" width="10" x="191" y="287.5"/><rect fill="#FEFECE" height="5" style="stroke: #A80036; stroke-width: 1.5;" width="10" x="191" y="308.7969"/><text fill="#000000" font-family="sans-serif" font-size="14" lengthAdjust="spacingAndGlyphs" textLength="166" x="206" y="305.4951">wsclient-cloudstore-app</text><!--entity PUT--><ellipse cx="289" cy="417" fill="#FEFECE" filter="url(#fc2mtfoo2em8w)" rx="8" ry="8" style="stroke: #A80036; stroke-width: 2.0;"/><text fill="#000000" font-family="sans-serif" font-size="14" lengthAdjust="spacingAndGlyphs" textLength="28" x="275" y="446.9951">PUT</text><!--entity UCL Office365 OneDrive--><rect fill="#FEFECE" filter="url(#fc2mtfoo2em8w)" height="36.2969" style="stroke: #A80036; stroke-width: 1.5;" width="185" x="196.5" y="506"/><rect fill="#FEFECE" height="5" style="stroke: #A80036; stroke-width: 1.5;" width="10" x="191.5" y="511"/><rect fill="#FEFECE" height="5" style="stroke: #A80036; stroke-width: 1.5;" width="10" x="191.5" y="532.2969"/><text fill="#000000" font-family="sans-serif" font-size="14" lengthAdjust="spacingAndGlyphs" textLength="165" x="206.5" y="528.9951">UCL Office365 OneDrive</text><!--entity API--><ellipse cx="289" cy="646" fill="#FEFECE" filter="url(#fc2mtfoo2em8w)" rx="8" ry="8" style="stroke: #A80036; stroke-width: 2.0;"/><text fill="#000000" font-family="sans-serif" font-size="14" lengthAdjust="spacingAndGlyphs" textLength="21" x="278.5" y="675.9951">API</text><!--entity clientapp1--><rect fill="#FEFECE" filter="url(#fc2mtfoo2em8w)" height="36.2969" style="stroke: #A80036; stroke-width: 1.5;" width="92" x="62" y="735"/><rect fill="#FEFECE" height="5" style="stroke: #A80036; stroke-width: 1.5;" width="10" x="57" y="740"/><rect fill="#FEFECE" height="5" style="stroke: #A80036; stroke-width: 1.5;" width="10" x="57" y="761.2969"/><text fill="#000000" font-family="sans-serif" font-size="14" lengthAdjust="spacingAndGlyphs" textLength="72" x="72" y="757.9951">clientapp1</text><!--entity clientapp2--><rect fill="#FEFECE" filter="url(#fc2mtfoo2em8w)" height="36.2969" style="stroke: #A80036; stroke-width: 1.5;" width="92" x="189" y="735"/><rect fill="#FEFECE" height="5" style="stroke: #A80036; stroke-width: 1.5;" width="10" x="184" y="740"/><rect fill="#FEFECE" height="5" style="stroke: #A80036; stroke-width: 1.5;" width="10" x="184" y="761.2969"/><text fill="#000000" font-family="sans-serif" font-size="14" lengthAdjust="spacingAndGlyphs" textLength="72" x="199" y="757.9951">clientapp2</text><!--entity clientappn--><rect fill="#FEFECE" filter="url(#fc2mtfoo2em8w)" height="36.2969" style="stroke: #A80036; stroke-width: 1.5;" width="92" x="316" y="735"/><rect fill="#FEFECE" height="5" style="stroke: #A80036; stroke-width: 1.5;" width="10" x="311" y="740"/><rect fill="#FEFECE" height="5" style="stroke: #A80036; stroke-width: 1.5;" width="10" x="311" y="761.2969"/><text fill="#000000" font-family="sans-serif" font-size="14" lengthAdjust="spacingAndGlyphs" textLength="72" x="326" y="757.9951">clientappn</text><!--entity data processor--><rect fill="#FEFECE" filter="url(#fc2mtfoo2em8w)" height="36.2969" style="stroke: #A80036; stroke-width: 1.5;" width="124" x="159" y="831"/><rect fill="#FEFECE" height="5" style="stroke: #A80036; stroke-width: 1.5;" width="10" x="154" y="836"/><rect fill="#FEFECE" height="5" style="stroke: #A80036; stroke-width: 1.5;" width="10" x="154" y="857.2969"/><text fill="#000000" font-family="sans-serif" font-size="14" lengthAdjust="spacingAndGlyphs" textLength="104" x="169" y="853.9951">data processor</text><!--entity objectstore--><rect fill="#FEFECE" filter="url(#fc2mtfoo2em8w)" height="36.2969" style="stroke: #A80036; stroke-width: 1.5;" width="99" x="291.5" y="927"/><rect fill="#FEFECE" height="5" style="stroke: #A80036; stroke-width: 1.5;" width="10" x="286.5" y="932"/><rect fill="#FEFECE" height="5" style="stroke: #A80036; stroke-width: 1.5;" width="10" x="286.5" y="953.2969"/><text fill="#000000" font-family="sans-serif" font-size="14" lengthAdjust="spacingAndGlyphs" textLength="79" x="301.5" y="949.9951">objectstore</text><!--entity database--><rect fill="#FEFECE" filter="url(#fc2mtfoo2em8w)" height="36.2969" style="stroke: #A80036; stroke-width: 1.5;" width="84" x="172" y="927"/><rect fill="#FEFECE" height="5" style="stroke: #A80036; stroke-width: 1.5;" width="10" x="167" y="932"/><rect fill="#FEFECE" height="5" style="stroke: #A80036; stroke-width: 1.5;" width="10" x="167" y="953.2969"/><text fill="#000000" font-family="sans-serif" font-size="14" lengthAdjust="spacingAndGlyphs" textLength="64" x="182" y="949.9951">database</text><!--entity filestore--><rect fill="#FEFECE" filter="url(#fc2mtfoo2em8w)" height="36.2969" style="stroke: #A80036; stroke-width: 1.5;" width="75" x="61.5" y="927"/><rect fill="#FEFECE" height="5" style="stroke: #A80036; stroke-width: 1.5;" width="10" x="56.5" y="932"/><rect fill="#FEFECE" height="5" style="stroke: #A80036; stroke-width: 1.5;" width="10" x="56.5" y="953.2969"/><text fill="#000000" font-family="sans-serif" font-size="14" lengthAdjust="spacingAndGlyphs" textLength="55" x="71.5" y="949.9951">filestore</text><polygon fill="#FBFB77" filter="url(#fc2mtfoo2em8w)" points="417,273,417,328.3984,697,328.3984,697,283,687,273,417,273" style="stroke: #A80036; stroke-width: 1.0;"/><polygon fill="#FBFB77" points="417,273,417,296.5,382.172,300.5,417,304.5,417,328.3984,697,328.3984,697,283,687,273,417,273" style="stroke: #A80036; stroke-width: 1.0;"/><line style="stroke: #A80036; stroke-width: 1.0;" x1="687" x2="687" y1="273" y2="283"/><line style="stroke: #A80036; stroke-width: 1.0;" x1="697" x2="687" y1="283" y2="283"/><text fill="#000000" font-family="sans-serif" font-size="13" lengthAdjust="spacingAndGlyphs" textLength="149" x="423" y="290.0669">Calls Twitter Search API</text><text fill="#000000" font-family="sans-serif" font-size="13" lengthAdjust="spacingAndGlyphs" textLength="259" x="423" y="305.1997">Package and compress JSON in a ZIP file</text><text fill="#000000" font-family="sans-serif" font-size="13" lengthAdjust="spacingAndGlyphs" textLength="183" x="423" y="320.3325">Push the ZIP file to OneDrive</text><polygon fill="#FBFB77" filter="url(#fc2mtfoo2em8w)" points="446.5,633.5,446.5,658.6328,535.5,658.6328,535.5,643.5,525.5,633.5,446.5,633.5" style="stroke: #A80036; stroke-width: 1.0;"/><polygon fill="#FBFB77" points="446.5,633.5,446.5,642,298.088,646,446.5,650,446.5,658.6328,535.5,658.6328,535.5,643.5,525.5,633.5,446.5,633.5" style="stroke: #A80036; stroke-width: 1.0;"/><line style="stroke: #A80036; stroke-width: 1.0;" x1="525.5" x2="525.5" y1="633.5" y2="643.5"/><line style="stroke: #A80036; stroke-width: 1.0;" x1="535.5" x2="525.5" y1="643.5" y2="643.5"/><text fill="#000000" font-family="sans-serif" font-size="13" lengthAdjust="spacingAndGlyphs" textLength="68" x="452.5" y="650.5669">Python API</text><!--link Twitter API to GET--><path d="M289,95.339 C289,118.288 289,157.828 289,174.835 " fill="none" id="Twitter API-GET" style="stroke: #A80036; stroke-width: 1.0;"/><!--link GET to wsclient-cloudstore-app--><path d="M289,193.235 C289,210.564 289,251.316 289,277.019 " fill="none" id="GET-wsclient-cloudstore-app" style="stroke: #A80036; stroke-width: 1.0;"/><polygon fill="#A80036" points="289,282.261,293,273.261,289,277.261,285,273.261,289,282.261" style="stroke: #A80036; stroke-width: 1.0;"/><!--link wsclient-cloudstore-app to PUT--><path d="M289,318.89 C289,341.976 289,382.23 289,402.912 " fill="none" id="wsclient-cloudstore-app-PUT" style="stroke: #A80036; stroke-width: 1.0;"/><polygon fill="#A80036" points="289,407.961,293,398.961,289,402.961,285,398.961,289,407.961" style="stroke: #A80036; stroke-width: 1.0;"/><!--link PUT to UCL Office365 OneDrive--><path d="M289,426.239 C289,443.353 289,483.058 289,505.933 " fill="none" id="PUT-UCL Office365 OneDrive" style="stroke: #A80036; stroke-width: 1.0;"/><!--link UCL Office365 OneDrive to API--><path d="M289,542.193 C289,566.449 289,610.181 289,631.952 " fill="none" id="UCL Office365 OneDrive-API" style="stroke: #A80036; stroke-width: 1.0; stroke-dasharray: 7.0,7.0;"/><polygon fill="#A80036" points="289,636.988,293,627.988,289,631.988,285,627.988,289,636.988" style="stroke: #A80036; stroke-width: 1.0;"/><!--link API to clientapp1--><path d="M279.775,652.351 C253.841,667.396 179.454,710.549 137.572,734.845 " fill="none" id="API-clientapp1" style="stroke: #A80036; stroke-width: 1.0;"/><!--link API to clientapp2--><path d="M284.763,655.239 C275.961,672.353 255.542,712.058 243.777,734.933 " fill="none" id="API-clientapp2" style="stroke: #A80036; stroke-width: 1.0;"/><!--link API to clientappn--><path d="M294.728,655.239 C306.627,672.353 334.231,712.058 350.134,734.933 " fill="none" id="API-clientappn" style="stroke: #A80036; stroke-width: 1.0;"/><!--link clientapp1 to data processor--><path d="M128.463,771.023 C147.544,786.895 176.034,810.595 196.357,827.5 " fill="none" id="clientapp1-data processor" style="stroke: #A80036; stroke-width: 1.0;"/><polygon fill="#A80036" points="200.307,830.786,195.945,821.9558,196.4627,827.5889,190.8296,828.1066,200.307,830.786" style="stroke: #A80036; stroke-width: 1.0;"/><!--link clientapp2 to data processor--><path d="M232.432,771.241 C230.143,786.612 226.779,809.196 224.293,825.891 " fill="none" id="clientapp2-data processor" style="stroke: #A80036; stroke-width: 1.0;"/><polygon fill="#A80036" points="223.552,830.868,228.8351,822.556,224.2891,825.9226,220.9225,821.3767,223.552,830.868" style="stroke: #A80036; stroke-width: 1.0;"/><!--link clientappn to data processor--><path d="M336.466,771.023 C312.46,787.027 276.515,810.99 251.118,827.921 " fill="none" id="clientappn-data processor" style="stroke: #A80036; stroke-width: 1.0;"/><polygon fill="#A80036" points="246.821,830.786,256.528,829.1204,250.9808,828.0118,252.0893,822.4647,246.821,830.786" style="stroke: #A80036; stroke-width: 1.0;"/><!--link data processor to objectstore--><path d="M249.351,867.008 C257.492,872.205 266.257,878.109 274,884 C289.992,896.166 306.836,911.262 319.635,923.2686 " fill="none" id="data processor-objectstore" style="stroke: #A80036; stroke-width: 1.0;"/><polygon fill="#A80036" points="323.472,926.8888,319.6711,917.8029,319.8353,923.4574,314.1808,923.6216,323.472,926.8888" style="stroke: #A80036; stroke-width: 1.0;"/><!--link data processor to database--><path d="M219.716,867.241 C218.581,882.479 216.919,904.807 215.679,921.4576 " fill="none" id="data processor-database" style="stroke: #A80036; stroke-width: 1.0;"/><polygon fill="#A80036" points="215.276,926.8683,219.9333,918.1902,215.6473,921.8821,211.9554,917.5961,215.276,926.8683" style="stroke: #A80036; stroke-width: 1.0;"/><!--link data processor to filestore--><path d="M182.313,867.111 C172.99,871.983 163.325,877.7 155,884 C140.198,895.201 125.959,910.54 115.543,922.9041 " fill="none" id="data processor-filestore" style="stroke: #A80036; stroke-width: 1.0;"/><polygon fill="#A80036" points="112.162,926.973,120.9904,922.6073,115.3575,923.1274,114.8374,917.4945,112.162,926.973" style="stroke: #A80036; stroke-width: 1.0;"/><!--
@startuml
cloud "Internet" {
    [Twitter API] - - GET
    GET - -> [wsclient-cloudstore-app]
    [wsclient-cloudstore-app] - -> PUT
    PUT - - [UCL Office365 OneDrive]
}

note right of [wsclient-cloudstore-app]
    Calls Twitter Search API
    Package and compress JSON in a ZIP file
    Push the ZIP file to OneDrive
end note

frame "CS UCL" {
    [UCL Office365 OneDrive] ..> API
    API - - [clientapp1]
    API - - [clientapp2]
    API - - [clientappn]

    [clientapp1] - -> [data processor]
    [clientapp2] - -> [data processor]
    [clientappn] - -> [data processor]

    folder "storage" {
        [data processor] - -> [objectstore]
        [data processor] - -> [database]
        [data processor] - -> [filestore]

    }
}

note right of API
    Python API
end note
@enduml

PlantUML version 1.2017.20(Mon Dec 11 16:57:05 GMT 2017)
(APACHE source distribution)
Java Runtime: Java(TM) SE Runtime Environment
JVM: Java HotSpot(TM) 64-Bit Server VM
Java Version: 1.8.0_152-b16
Operating System: Linux
OS Version: 4.13.0-25-generic
Default Encoding: UTF-8
Language: en
Country: GB
--></g></svg>