<?xml version="1.0" encoding="UTF-8" standalone="no"?><svg xmlns="http://www.w3.org/2000/svg" xmlns:xlink="http://www.w3.org/1999/xlink" contentScriptType="application/ecmascript" contentStyleType="text/css" height="960px" preserveAspectRatio="none" style="width:659px;height:960px;" version="1.1" viewBox="0 0 659 960" width="659px" zoomAndPan="magnify"><defs><filter height="300%" id="fc2mtfoo2em8w" width="300%" x="-1" y="-1"><feGaussianBlur result="blurOut" stdDeviation="2.0"/><feColorMatrix in="blurOut" result="blurOut2" type="matrix" values="0 0 0 0 0 0 0 0 0 0 0 0 0 0 0 0 0 0 .4 0"/><feOffset dx="4.0" dy="4.0" in="blurOut2" result="blurOut3"/><feBlend in="SourceGraphic" in2="blurOut3" mode="normal"/></filter></defs><g><!--cluster Internet--><path d="M134,23 C134,20 136,18 139,18 C142,18 144,20 144,23 C144,20 146,18 149,18 C152,18 154,20 154,23 C154,20 156,18 159,18 C162,18 164,20 164,23 C164,20 166,18 169,18 C172,18 174,20 174,23 C174,20 176,18 179,18 C182,18 184,20 184,23 C184,20 186,18 189,18 C192,18 194,20 194,23 C194,20 196,18 199,18 C202,18 204,20 204,23 C204,20 206,18 209,18 C212,18 214,20 214,23 C214,20 216,18 219,18 C222,18 224,20 224,23 C224,20 226,18 229,18 C232,18 234,20 234,23 C234,20 236,18 239,18 C242,18 244,20 244,23 C244,20 246,18 249,18 C252,18 254,20 254,23 C254,20 256,18 259,18 C262,18 264,20 264,23 C264,20 266,18 269,18 C272,18 274,20 274,23 C274,20 276,18 279,18 C282,18 284,20 284,23 C284,20 286,18 289,18 C292,18 294,20 294,23 C294,20 296,18 299,18 C302,18 304,20 304,23 C304,20 306,18 309,18 C312,18 314,20 314,23 C314,20 316,18 319,18 C322,18 324,20 324,23 C324,20 326,18 329,18 C332,18 334,20 334,23 C337,23 339,25 339,28 C339,31 337,33 334,33 C337,33 339,35 339,38 C339,41 337,43 334,43 C337,43 339,45 339,48 C339,51 337,53 334,53 C337,53 339,55 339,58 C339,61 337,63 334,63 C337,63 339,65 339,68 C339,71 337,73 334,73 C337,73 339,75 339,78 C339,81 337,83 334,83 C337,83 339,85 339,88 C339,91 337,93 334,93 C337,93 339,95 339,98 C339,101 337,103 334,103 C337,103 339,105 339,108 C339,111 337,113 334,113 C337,113 339,115 339,118 C339,121 337,123 334,123 C337,123 339,125 339,128 C339,131 337,133 334,133 C337,133 339,135 339,138 C339,141 337,143 334,143 C337,143 339,145 339,148 C339,151 337,153 334,153 C337,153 339,155 339,158 C339,161 337,163 334,163 C337,163 339,165 339,168 C339,171 337,173 334,173 C337,173 339,175 339,178 C339,181 337,183 334,183 C337,183 339,185 339,188 C339,191 337,193 334,193 C337,193 339,195 339,198 C339,201 337,203 334,203 C337,203 339,205 339,208 C339,211 337,213 334,213 C337,213 339,215 339,218 C339,221 337,223 334,223 C337,223 339,225 339,228 C339,231 337,233 334,233 C337,233 339,235 339,238 C339,241 337,243 334,243 C337,243 339,245 339,248 C339,251 337,253 334,253 C337,253 339,255 339,258 C339,261 337,263 334,263 C337,263 339,265 339,268 C339,271 337,273 334,273 C337,273 339,275 339,278 C339,281 337,283 334,283 C337,283 339,285 339,288 C339,291 337,293 334,293 C337,293 339,295 339,298 C339,301 337,303 334,303 C337,303 339,305 339,308 C339,311 337,313 334,313 C337,313 339,315 339,318 C339,321 337,323 334,323 C337,323 339,325 339,328 C339,331 337,333 334,333 C337,333 339,335 339,338 C339,341 337,343 334,343 C337,343 339,345 339,348 C339,351 337,353 334,353 C337,353 339,355 339,358 C339,361 337,363 334,363 C337,363 339,365 339,368 C339,371 337,373 334,373 C337,373 339,375 339,378 C339,381 337,383 334,383 C337,383 339,385 339,388 C339,391 337,393 334,393 C337,393 339,395 339,398 C339,401 337,403 334,403 C337,403 339,405 339,408 C339,411 337,413 334,413 C337,413 339,415 339,418 C339,421 337,423 334,423 C337,423 339,425 339,428 C339,431 337,433 334,433 C337,433 339,435 339,438 C339,441 337,443 334,443 C337,443 339,445 339,448 C339,451 337,453 334,453 C337,453 339,455 339,458 C339,461 337,463 334,463 C337,463 339,465 339,468 C339,471 337,473 334,473 C337,473 339,475 339,478 C339,481 337,483 334,483 C337,483 339,485 339,488 C339,491 337,493 334,493 C337,493 339,495 339,498 C339,501 337,503 334,503 C337,503 339,505 339,508 C339,511 337,513 334,513 C337,513 339,515 339,518 C339,521 337,523 334,523 C334,526 331,528 329,528 C326,528 324,526 324,523 C324,526 321,528 319,528 C316,528 314,526 314,523 C314,526 311,528 309,528 C306,528 304,526 304,523 C304,526 301,528 299,528 C296,528 294,526 294,523 C294,526 291,528 289,528 C286,528 284,526 284,523 C284,526 281,528 279,528 C276,528 274,526 274,523 C274,526 271,528 269,528 C266,528 264,526 264,523 C264,526 261,528 259,528 C256,528 254,526 254,523 C254,526 251,528 249,528 C246,528 244,526 244,523 C244,526 241,528 239,528 C236,528 234,526 234,523 C234,526 231,528 229,528 C226,528 224,526 224,523 C224,526 221,528 219,528 C216,528 214,526 214,523 C214,526 211,528 209,528 C206,528 204,526 204,523 C204,526 201,528 199,528 C196,528 194,526 194,523 C194,526 191,528 189,528 C186,528 184,526 184,523 C184,526 181,528 179,528 C176,528 174,526 174,523 C174,526 171,528 169,528 C166,528 164,526 164,523 C164,526 161,528 159,528 C156,528 154,526 154,523 C154,526 151,528 149,528 C146,528 144,526 144,523 C144,526 141,528 139,528 C136,528 134,526 134,523 C131,523 129,521 129,518 C129,515 131,513 134,513 C131,513 129,511 129,508 C129,505 131,503 134,503 C131,503 129,501 129,498 C129,495 131,493 134,493 C131,493 129,491 129,488 C129,485 131,483 134,483 C131,483 129,481 129,478 C129,475 131,473 134,473 C131,473 129,471 129,468 C129,465 131,463 134,463 C131,463 129,461 129,458 C129,455 131,453 134,453 C131,453 129,451 129,448 C129,445 131,443 134,443 C131,443 129,441 129,438 C129,435 131,433 134,433 C131,433 129,431 129,428 C129,425 131,423 134,423 C131,423 129,421 129,418 C129,415 131,413 134,413 C131,413 129,411 129,408 C129,405 131,403 134,403 C131,403 129,401 129,398 C129,395 131,393 134,393 C131,393 129,391 129,388 C129,385 131,383 134,383 C131,383 129,381 129,378 C129,375 131,373 134,373 C131,373 129,371 129,368 C129,365 131,363 134,363 C131,363 129,361 129,358 C129,355 131,353 134,353 C131,353 129,351 129,348 C129,345 131,343 134,343 C131,343 129,341 129,338 C129,335 131,333 134,333 C131,333 129,331 129,328 C129,325 131,323 134,323 C131,323 129,321 129,318 C129,315 131,313 134,313 C131,313 129,311 129,308 C129,305 131,303 134,303 C131,303 129,301 129,298 C129,295 131,293 134,293 C131,293 129,291 129,288 C129,285 131,283 134,283 C131,283 129,281 129,278 C129,275 131,273 134,273 C131,273 129,271 129,268 C129,265 131,263 134,263 C131,263 129,261 129,258 C129,255 131,253 134,253 C131,253 129,251 129,248 C129,245 131,243 134,243 C131,243 129,241 129,238 C129,235 131,233 134,233 C131,233 129,231 129,228 C129,225 131,223 134,223 C131,223 129,221 129,218 C129,215 131,213 134,213 C131,213 129,211 129,208 C129,205 131,203 134,203 C131,203 129,201 129,198 C129,195 131,193 134,193 C131,193 129,191 129,188 C129,185 131,183 134,183 C131,183 129,181 129,178 C129,175 131,173 134,173 C131,173 129,171 129,168 C129,165 131,163 134,163 C131,163 129,161 129,158 C129,155 131,153 134,153 C131,153 129,151 129,148 C129,145 131,143 134,143 C131,143 129,141 129,138 C129,135 131,133 134,133 C131,133 129,131 129,128 C129,125 131,123 134,123 C131,123 129,121 129,118 C129,115 131,113 134,113 C131,113 129,111 129,108 C129,105 131,103 134,103 C131,103 129,101 129,98 C129,95 131,93 134,93 C131,93 129,91 129,88 C129,85 131,83 134,83 C131,83 129,81 129,78 C129,75 131,73 134,73 C131,73 129,71 129,68 C129,65 131,63 134,63 C131,63 129,61 129,58 C129,55 131,53 134,53 C131,53 129,51 129,48 C129,45 131,43 134,43 C131,43 129,41 129,38 C129,35 131,33 134,33 C131,33 129,31 129,28 C129,25 131,23 134,23 " fill="#FFFFFF" filter="url(#fc2mtfoo2em8w)" style="stroke: #000000; stroke-width: 1.5;"/><text fill="#000000" font-family="sans-serif" font-size="14" font-weight="bold" lengthAdjust="spacingAndGlyphs" textLength="57" x="205.5" y="42.5352">Internet</text><!--cluster CS UCL--><rect fill="#FFFFFF" filter="url(#fc2mtfoo2em8w)" height="389" style="stroke: #000000; stroke-width: 1.5;" width="362" x="14" y="560"/><path d="M75,561 L75,569.4883 L65,579.4883 L14,579.4883 " fill="none" style="stroke: #000000; stroke-width: 1.5;"/><text fill="#000000" font-family="sans-serif" font-size="14" font-weight="bold" lengthAdjust="spacingAndGlyphs" textLength="51" x="17" y="574.5352">CS UCL</text><!--cluster storage--><polygon fill="#FFFFFF" filter="url(#fc2mtfoo2em8w)" points="26,870,86,870,93,892.4883,368,892.4883,368,941,26,941,26,870" style="stroke: #000000; stroke-width: 1.5;"/><line style="stroke: #000000; stroke-width: 1.5;" x1="26" x2="93" y1="892.4883" y2="892.4883"/><text fill="#000000" font-family="sans-serif" font-size="14" font-weight="bold" lengthAdjust="spacingAndGlyphs" textLength="54" x="30" y="885.5352">storage</text><!--entity Twitter API--><rect fill="#FEFECE" filter="url(#fc2mtfoo2em8w)" height="36.4883" style="stroke: #A80036; stroke-width: 1.5;" width="94" x="187" y="43"/><rect fill="#FEFECE" height="5" style="stroke: #A80036; stroke-width: 1.5;" width="10" x="182" y="48"/><rect fill="#FEFECE" height="5" style="stroke: #A80036; stroke-width: 1.5;" width="10" x="182" y="69.4883"/><text fill="#000000" font-family="sans-serif" font-size="14" lengthAdjust="spacingAndGlyphs" textLength="74" x="197" y="66.5352">Twitter API</text><!--entity GET--><ellipse cx="234" cy="168" fill="#FEFECE" filter="url(#fc2mtfoo2em8w)" rx="8" ry="8" style="stroke: #A80036; stroke-width: 2.0;"/><text fill="#000000" font-family="sans-serif" font-size="14" lengthAdjust="spacingAndGlyphs" textLength="27" x="220.5" y="198.5352">GET</text><!--entity wsclient-cloudstore-app--><rect fill="#FEFECE" filter="url(#fc2mtfoo2em8w)" height="36.4883" style="stroke: #A80036; stroke-width: 1.5;" width="190" x="139" y="267"/><rect fill="#FEFECE" height="5" style="stroke: #A80036; stroke-width: 1.5;" width="10" x="134" y="272"/><rect fill="#FEFECE" height="5" style="stroke: #A80036; stroke-width: 1.5;" width="10" x="134" y="293.4883"/><text fill="#000000" font-family="sans-serif" font-size="14" lengthAdjust="spacingAndGlyphs" textLength="170" x="149" y="290.5352">wsclient-cloudstore-app</text><!--entity PUT--><ellipse cx="234" cy="402" fill="#FEFECE" filter="url(#fc2mtfoo2em8w)" rx="8" ry="8" style="stroke: #A80036; stroke-width: 2.0;"/><text fill="#000000" font-family="sans-serif" font-size="14" lengthAdjust="spacingAndGlyphs" textLength="27" x="220.5" y="432.5352">PUT</text><!--entity UCL Office365 OneDrive--><rect fill="#FEFECE" filter="url(#fc2mtfoo2em8w)" height="36.4883" style="stroke: #A80036; stroke-width: 1.5;" width="185" x="141.5" y="491"/><rect fill="#FEFECE" height="5" style="stroke: #A80036; stroke-width: 1.5;" width="10" x="136.5" y="496"/><rect fill="#FEFECE" height="5" style="stroke: #A80036; stroke-width: 1.5;" width="10" x="136.5" y="517.4883"/><text fill="#000000" font-family="sans-serif" font-size="14" lengthAdjust="spacingAndGlyphs" textLength="165" x="151.5" y="514.5352">UCL Office365 OneDrive</text><!--entity API--><ellipse cx="234" cy="616" fill="#FEFECE" filter="url(#fc2mtfoo2em8w)" rx="8" ry="8" style="stroke: #A80036; stroke-width: 2.0;"/><text fill="#000000" font-family="sans-serif" font-size="14" lengthAdjust="spacingAndGlyphs" textLength="22" x="223" y="646.5352">API</text><!--entity clientapp1--><rect fill="#FEFECE" filter="url(#fc2mtfoo2em8w)" height="36.4883" style="stroke: #A80036; stroke-width: 1.5;" width="92" x="22" y="705"/><rect fill="#FEFECE" height="5" style="stroke: #A80036; stroke-width: 1.5;" width="10" x="17" y="710"/><rect fill="#FEFECE" height="5" style="stroke: #A80036; stroke-width: 1.5;" width="10" x="17" y="731.4883"/><text fill="#000000" font-family="sans-serif" font-size="14" lengthAdjust="spacingAndGlyphs" textLength="72" x="32" y="728.5352">clientapp1</text><!--entity clientapp2--><rect fill="#FEFECE" filter="url(#fc2mtfoo2em8w)" height="36.4883" style="stroke: #A80036; stroke-width: 1.5;" width="92" x="149" y="705"/><rect fill="#FEFECE" height="5" style="stroke: #A80036; stroke-width: 1.5;" width="10" x="144" y="710"/><rect fill="#FEFECE" height="5" style="stroke: #A80036; stroke-width: 1.5;" width="10" x="144" y="731.4883"/><text fill="#000000" font-family="sans-serif" font-size="14" lengthAdjust="spacingAndGlyphs" textLength="72" x="159" y="728.5352">clientapp2</text><!--entity clientappn--><rect fill="#FEFECE" filter="url(#fc2mtfoo2em8w)" height="36.4883" style="stroke: #A80036; stroke-width: 1.5;" width="92" x="276" y="705"/><rect fill="#FEFECE" height="5" style="stroke: #A80036; stroke-width: 1.5;" width="10" x="271" y="710"/><rect fill="#FEFECE" height="5" style="stroke: #A80036; stroke-width: 1.5;" width="10" x="271" y="731.4883"/><text fill="#000000" font-family="sans-serif" font-size="14" lengthAdjust="spacingAndGlyphs" textLength="72" x="286" y="728.5352">clientappn</text><!--entity data processor--><rect fill="#FEFECE" filter="url(#fc2mtfoo2em8w)" height="36.4883" style="stroke: #A80036; stroke-width: 1.5;" width="122" x="129" y="801"/><rect fill="#FEFECE" height="5" style="stroke: #A80036; stroke-width: 1.5;" width="10" x="124" y="806"/><rect fill="#FEFECE" height="5" style="stroke: #A80036; stroke-width: 1.5;" width="10" x="124" y="827.4883"/><text fill="#000000" font-family="sans-serif" font-size="14" lengthAdjust="spacingAndGlyphs" textLength="102" x="139" y="824.5352">data processor</text><!--entity objectstore--><rect fill="#FEFECE" filter="url(#fc2mtfoo2em8w)" height="36.4883" style="stroke: #A80036; stroke-width: 1.5;" width="97" x="262.5" y="897"/><rect fill="#FEFECE" height="5" style="stroke: #A80036; stroke-width: 1.5;" width="10" x="257.5" y="902"/><rect fill="#FEFECE" height="5" style="stroke: #A80036; stroke-width: 1.5;" width="10" x="257.5" y="923.4883"/><text fill="#000000" font-family="sans-serif" font-size="14" lengthAdjust="spacingAndGlyphs" textLength="77" x="272.5" y="920.5352">objectstore</text><!--entity database--><rect fill="#FEFECE" filter="url(#fc2mtfoo2em8w)" height="36.4883" style="stroke: #A80036; stroke-width: 1.5;" width="82" x="145" y="897"/><rect fill="#FEFECE" height="5" style="stroke: #A80036; stroke-width: 1.5;" width="10" x="140" y="902"/><rect fill="#FEFECE" height="5" style="stroke: #A80036; stroke-width: 1.5;" width="10" x="140" y="923.4883"/><text fill="#000000" font-family="sans-serif" font-size="14" lengthAdjust="spacingAndGlyphs" textLength="62" x="155" y="920.5352">database</text><!--entity filestore--><rect fill="#FEFECE" filter="url(#fc2mtfoo2em8w)" height="36.4883" style="stroke: #A80036; stroke-width: 1.5;" width="76" x="34" y="897"/><rect fill="#FEFECE" height="5" style="stroke: #A80036; stroke-width: 1.5;" width="10" x="29" y="902"/><rect fill="#FEFECE" height="5" style="stroke: #A80036; stroke-width: 1.5;" width="10" x="29" y="923.4883"/><text fill="#000000" font-family="sans-serif" font-size="14" lengthAdjust="spacingAndGlyphs" textLength="56" x="44" y="920.5352">filestore</text><polygon fill="#FBFB77" filter="url(#fc2mtfoo2em8w)" points="364.5,257,364.5,312.9316,637.5,312.9316,637.5,267,627.5,257,364.5,257" style="stroke: #A80036; stroke-width: 1.0;"/><polygon fill="#FBFB77" points="364.5,257,364.5,281,329.1709,285,364.5,289,364.5,312.9316,637.5,312.9316,637.5,267,627.5,257,364.5,257" style="stroke: #A80036; stroke-width: 1.0;"/><line style="stroke: #A80036; stroke-width: 1.0;" x1="627.5" x2="627.5" y1="257" y2="267"/><line style="stroke: #A80036; stroke-width: 1.0;" x1="637.5" x2="627.5" y1="267" y2="267"/><text fill="#000000" font-family="sans-serif" font-size="13" lengthAdjust="spacingAndGlyphs" textLength="148" x="370.5" y="274.5684">Calls Twitter Search API</text><text fill="#000000" font-family="sans-serif" font-size="13" lengthAdjust="spacingAndGlyphs" textLength="252" x="370.5" y="289.8789">Package and compress JSON in a ZIP file</text><text fill="#000000" font-family="sans-serif" font-size="13" lengthAdjust="spacingAndGlyphs" textLength="180" x="370.5" y="305.1895">Push the ZIP file to OneDrive</text><polygon fill="#FBFB77" filter="url(#fc2mtfoo2em8w)" points="384,603.5,384,628.8105,472,628.8105,472,613.5,462,603.5,384,603.5" style="stroke: #A80036; stroke-width: 1.0;"/><polygon fill="#FBFB77" points="384,603.5,384,628.8105,384,628.8105,243.0968,621.8005,392,628.8105,472,628.8105,472,613.5,462,603.5,384,603.5" style="stroke: #A80036; stroke-width: 1.0;"/><line style="stroke: #A80036; stroke-width: 1.0;" x1="462" x2="462" y1="603.5" y2="613.5"/><line style="stroke: #A80036; stroke-width: 1.0;" x1="472" x2="462" y1="613.5" y2="613.5"/><text fill="#000000" font-family="sans-serif" font-size="13" lengthAdjust="spacingAndGlyphs" textLength="67" x="390" y="621.0684">Python API</text><!--link Twitter API to GET--><path d="M234,79.1511 C234,102.2853 234,141.3808 234,158.9608 " fill="none" id="Twitter API-GET" style="stroke: #A80036; stroke-width: 1.0;"/><!--link GET to wsclient-cloudstore-app--><path d="M234,177.1808 C234,195.1857 234,235.6289 234,261.5431 " fill="none" id="GET-wsclient-cloudstore-app" style="stroke: #A80036; stroke-width: 1.0;"/><polygon fill="#A80036" points="234,266.8391,238,257.8391,234,261.8391,230,257.8391,234,266.8391" style="stroke: #A80036; stroke-width: 1.0;"/><!--link wsclient-cloudstore-app to PUT--><path d="M234,303.0248 C234,326.3264 234,366.4323 234,387.7347 " fill="none" id="wsclient-cloudstore-app-PUT" style="stroke: #A80036; stroke-width: 1.0;"/><polygon fill="#A80036" points="234,392.9696,238,383.9696,234,387.9696,230,383.9696,234,392.9696" style="stroke: #A80036; stroke-width: 1.0;"/><!--link PUT to UCL Office365 OneDrive--><path d="M234,411.1228 C234,428.7101 234,467.6065 234,490.72 " fill="none" id="PUT-UCL Office365 OneDrive" style="stroke: #A80036; stroke-width: 1.0;"/><!--link UCL Office365 OneDrive to API--><path d="M234,527.1511 C234,548.1164 234,582.1907 234,601.48 " fill="none" id="UCL Office365 OneDrive-API" style="stroke: #A80036; stroke-width: 1.0; stroke-dasharray: 7.0,7.0;"/><polygon fill="#A80036" points="234,606.9608,238,597.9608,234,601.9608,230,597.9608,234,606.9608" style="stroke: #A80036; stroke-width: 1.0;"/><!--link API to clientapp1--><path d="M224.5995,622.0594 C200.1827,637.7979 134.011,680.4507 95.9544,704.9812 " fill="none" id="API-clientapp1" style="stroke: #A80036; stroke-width: 1.0;"/><!--link API to clientapp2--><path d="M230.6749,625.1228 C224.2646,642.7101 210.0874,681.6065 201.6628,704.72 " fill="none" id="API-clientapp2" style="stroke: #A80036; stroke-width: 1.0;"/><!--link API to clientappn--><path d="M241.5028,625.1228 C255.9672,642.7101 287.9567,681.6065 306.966,704.72 " fill="none" id="API-clientappn" style="stroke: #A80036; stroke-width: 1.0;"/><!--link clientapp1 to data processor--><path d="M90.9473,741.0569 C111.3509,757.1122 141.2118,780.6093 162.8086,797.6035 " fill="none" id="clientapp1-data processor" style="stroke: #A80036; stroke-width: 1.0;"/><polygon fill="#A80036" points="166.7408,800.6977,162.1415,791.9887,162.8114,797.6058,157.1944,798.2757,166.7408,800.6977" style="stroke: #A80036; stroke-width: 1.0;"/><!--link clientapp2 to data processor--><path d="M194.0595,741.0569 C193.2545,756.5126 192.0904,778.8647 191.2149,795.6731 " fill="none" id="clientapp2-data processor" style="stroke: #A80036; stroke-width: 1.0;"/><polygon fill="#A80036" points="190.9532,800.6977,195.416,791.918,191.2133,795.7045,187.4269,791.5018,190.9532,800.6977" style="stroke: #A80036; stroke-width: 1.0;"/><!--link clientappn to data processor--><path d="M297.1718,741.0569 C275.0957,757.1122 242.7872,780.6093 219.4202,797.6035 " fill="none" id="clientappn-data processor" style="stroke: #A80036; stroke-width: 1.0;"/><polygon fill="#A80036" points="215.1657,800.6977,224.797,798.6389,219.2093,797.7568,220.0915,792.1691,215.1657,800.6977" style="stroke: #A80036; stroke-width: 1.0;"/><!--link data processor to objectstore--><path d="M212.7592,837.0569 C232.9116,853.0456 262.3661,876.4144 283.7644,893.3916 " fill="none" id="data processor-objectstore" style="stroke: #A80036; stroke-width: 1.0;"/><polygon fill="#A80036" points="287.9315,896.6977,283.3673,887.9703,284.0146,893.59,278.3949,894.2373,287.9315,896.6977" style="stroke: #A80036; stroke-width: 1.0;"/><!--link data processor to database--><path d="M189.2476,837.0569 C188.6036,852.5126 187.6723,874.8647 186.972,891.6731 " fill="none" id="data processor-database" style="stroke: #A80036; stroke-width: 1.0;"/><polygon fill="#A80036" points="186.7626,896.6977,191.1338,887.872,186.9707,891.702,183.1407,887.539,186.7626,896.6977" style="stroke: #A80036; stroke-width: 1.0;"/><!--link data processor to filestore--><path d="M167.8051,837.0569 C148.1523,853.0456 119.4281,876.4144 98.5604,893.3916 " fill="none" id="data processor-filestore" style="stroke: #A80036; stroke-width: 1.0;"/><polygon fill="#A80036" points="94.4966,896.6977,104.0023,894.1206,98.3751,893.5422,98.9535,887.915,94.4966,896.6977" style="stroke: #A80036; stroke-width: 1.0;"/><!--
@startuml
cloud "Internet" {
    [Twitter API] - - GET
    GET - -> [wsclient-cloudstore-app]
    [wsclient-cloudstore-app] - -> PUT
    PUT - - [UCL Office365 OneDrive]
}

note right of [wsclient-cloudstore-app]
    Calls Twitter Search API
    Package and compress JSON in a ZIP file
    Push the ZIP file to OneDrive
end note

frame "CS UCL" {
    [UCL Office365 OneDrive] ..> API
    API - - [clientapp1]
    API - - [clientapp2]
    API - - [clientappn]

    [clientapp1] - -> [data processor]
    [clientapp2] - -> [data processor]
    [clientappn] - -> [data processor]

    folder "storage" {
        [data processor] - -> [objectstore]
        [data processor] - -> [database]
        [data processor] - -> [filestore]

    }
}

note right of API
    Python API
end note
@enduml

PlantUML version 1.2017.20(Mon Dec 11 16:57:05 GMT 2017)
(APACHE source distribution)
Java Runtime: Java(TM) SE Runtime Environment
JVM: Java HotSpot(TM) 64-Bit Server VM
Java Version: 9.0.4+11
Operating System: Mac OS X
OS Version: 10.13.2
Default Encoding: UTF-8
Language: en
Country: GB
--></g></svg>